<?xml version="1.0" encoding="UTF-8" standalone="no"?>
<!-- Created with Inkscape (http://www.inkscape.org/) -->

<svg
   width="88.151108mm"
   height="40.957874mm"
   viewBox="0 0 88.151108 40.957874"
   version="1.1"
   id="svg1"
   xml:space="preserve"
   xmlns:inkscape="http://www.inkscape.org/namespaces/inkscape"
   xmlns:sodipodi="http://sodipodi.sourceforge.net/DTD/sodipodi-0.dtd"
   xmlns="http://www.w3.org/2000/svg"
   xmlns:svg="http://www.w3.org/2000/svg"><sodipodi:namedview
     id="namedview1"
     pagecolor="#ffffff"
     bordercolor="#000000"
     borderopacity="0.25"
     inkscape:showpageshadow="2"
     inkscape:pageopacity="0.0"
     inkscape:pagecheckerboard="0"
     inkscape:deskcolor="#d1d1d1"
     inkscape:document-units="mm"><inkscape:page
       x="0"
       y="-6.1168795e-22"
       width="88.151108"
       height="40.95787"
       id="page2"
       margin="0"
       bleed="0" /></sodipodi:namedview><defs
     id="defs1"><linearGradient
       id="swatch1"
       inkscape:swatch="solid"><stop
         style="stop-color:#000000;stop-opacity:1;"
         offset="0"
         id="stop1" /></linearGradient></defs><g
     inkscape:label="Layer 1"
     inkscape:groupmode="layer"
     id="layer1"
     transform="translate(-50.880938,-82.524014)"><g
       id="g6"
       inkscape:label="Tinoka"
       style="fill:none;stroke:#000000;stroke-linecap:round;stroke-linejoin:round;stroke-opacity:1;paint-order:normal"
       inkscape:export-filename="tinoka_logo.svg"
       inkscape:export-xdpi="96"
       inkscape:export-ydpi="96"><path
         style="fill:none;stroke:#000000;stroke-linecap:round;stroke-linejoin:round;stroke-opacity:1;paint-order:normal"
         d="m 100.02289,83.580776 c 10.41668,-1.292842 21.49732,-0.200409 18.06143,1.930703 -3.43589,2.131112 -26.831356,3.266191 -35.87372,4.608777 -9.042364,1.342586 -21.596114,4.799115 -27.278972,9.964924 -5.682858,5.16581 -4.02386,10.46869 1.307896,11.52194 6.286213,1.24179 11.444547,-2.04016 11.444547,-2.04016"
         id="path1"
         sodipodi:nodetypes="czzzsc" /><path
         style="fill:none;stroke:#000000;stroke-linecap:round;stroke-linejoin:round;stroke-opacity:1;paint-order:normal"
         d="m 82.086037,90.244818 c 0,0 -14.794677,31.801722 -14.262294,32.572832 0.532383,0.77111 2.179828,-1.43245 2.179828,-1.43245"
         id="path2"
         sodipodi:nodetypes="czc" /><path
         style="fill:none;stroke:#000000;stroke-linecap:round;stroke-linejoin:round;stroke-opacity:1;paint-order:normal"
         d="m 86.056894,98.906268 v 0.01069"
         id="path3"
         sodipodi:nodetypes="cc" /><path
         style="fill:none;stroke:#000000;stroke-linecap:round;stroke-linejoin:round;stroke-opacity:1;paint-order:normal"
         d="m 80.503558,104.19662 3.346974,-2.99466 c 0,0 -4.156363,6.65992 -2.434133,8.02046 1.72223,1.36054 10.185025,-7.84431 10.185025,-7.84431 l -5.161053,8.14503 c 0,0 6.391803,-7.9953 8.606791,-6.79271 2.214988,1.20259 -1.794096,4.39411 0.258893,6.29759 2.052989,1.90348 7.334465,-4.16051 7.334465,-4.16051 0,0 -1.01042,3.76141 0.90307,4.492 1.91349,0.73059 4.7051,-4.50446 4.63609,-6.31142 -0.069,-1.80696 -1.19172,-2.30161 -2.20196,-2.11388 -1.01024,0.18773 -2.17631,1.31665 -1.32117,2.81851 0.85514,1.50186 8.18777,-0.22959 8.18777,-0.22959 3.36686,-5.501832 7.72146,-10.707342 11.87454,-15.973308 -6.49089,8.082812 -13.24705,16.077198 -16.11833,25.366548 2.92047,-4.08434 5.72061,-8.30906 9.60054,-11.27402 -1.74874,1.9338 -4.80288,3.45223 -4.93239,5.90124 2.63605,3.93317 6.58033,0.14778 9.95285,-0.26423"
         id="path4"
         sodipodi:nodetypes="cczcczzczzzzcccccc" /><path
         style="fill:none;stroke:#000000;stroke-linecap:round;stroke-linejoin:round;stroke-opacity:1;paint-order:normal"
         d="m 131.13347,104.00611 c -0.95236,-0.76578 -2.36447,-1.39629 -4.31584,-0.35232 -1.95137,1.04397 -3.80162,3.45936 -2.71974,5.39415 1.08188,1.9348 6.48312,-2.65593 6.77134,-4.33721 -1.02228,1.93772 -2.76394,3.47414 -1.44482,4.66098 1.31912,1.18684 9.10764,-2.10671 9.10764,-2.10671"
         id="path5"
         sodipodi:nodetypes="czzczc" /><path
         style="fill:none;stroke:#000000;stroke-linecap:round;stroke-linejoin:round;stroke-opacity:1;paint-order:normal"
         d="m 111.88738,95.196138 -2.30439,2.709211"
         id="path6" /><path
         style="display:none;fill:none;stroke:#000000;stroke-width:0.265;stroke-linecap:round;stroke-linejoin:round;stroke-dasharray:none;stroke-opacity:1;paint-order:normal"
         d="M 48.429131,109.92597 H 144.11767"
         id="path7"
         sodipodi:nodetypes="cc" /></g></g></svg>
